<svg xmlns="http://www.w3.org/2000/svg" version="1.1" xmlns:xlink="http://www.w3.org/1999/xlink" viewBox="0 0 200 200"><rect width="200" height="200" fill="url('#gradient')"></rect><defs><linearGradient id="gradient" gradientTransform="rotate(101 0.5 0.5)"><stop offset="0%" stop-color="#ffffff"></stop><stop offset="100%" stop-color="#2b6755"></stop></linearGradient></defs><g><g fill="#2b6755" transform="matrix(0.6550306131773737,0,0,0.6550306131773737,64.29572098310497,104.84957041910795)" stroke="#000000" stroke-width="0.2"><path d="M6.69-4.82L4.50-4.82L4.50 0L1.07 0L1.07-14.22L6.75-14.22Q8.38-14.22 9.63-13.62Q10.89-13.02 11.58-11.91Q12.27-10.80 12.27-9.39L12.27-9.39Q12.27-7.31 10.78-6.07Q9.29-4.82 6.69-4.82L6.69-4.82ZM4.50-11.57L4.50-7.47L6.75-7.47Q7.74-7.47 8.27-7.97Q8.79-8.47 8.79-9.38L8.79-9.38Q8.79-10.37 8.25-10.97Q7.71-11.56 6.79-11.57L6.79-11.57L4.50-11.57ZM17.41-15L17.41 0L14.11 0L14.11-15L17.41-15ZM28.68 0L25.39 0Q25.21-0.32 25.08-0.95L25.08-0.95Q24.17 0.20 22.54 0.20L22.54 0.20Q21.04 0.20 20-0.71Q18.96-1.61 18.96-2.98L18.96-2.98Q18.96-4.70 20.22-5.58Q21.49-6.46 23.92-6.46L23.92-6.46L24.93-6.46L24.93-7.01Q24.93-8.47 23.67-8.47L23.67-8.47Q22.50-8.47 22.50-7.31L22.50-7.31L19.21-7.31Q19.21-8.85 20.51-9.80Q21.82-10.76 23.84-10.76Q25.86-10.76 27.03-9.78Q28.20-8.79 28.23-7.07L28.23-7.07L28.23-2.39Q28.25-0.94 28.68-0.17L28.68-0.17L28.68 0ZM23.33-2.15L23.33-2.15Q23.95-2.15 24.35-2.41Q24.76-2.68 24.93-3.01L24.93-3.01L24.93-4.70L23.97-4.70Q22.26-4.70 22.26-3.15L22.26-3.15Q22.26-2.71 22.56-2.43Q22.86-2.15 23.33-2.15ZM34.52-2.34L34.52-2.34Q35.21-2.34 35.60-2.72Q35.98-3.10 35.97-3.77L35.97-3.77L39.05-3.77Q39.05-2.03 37.81-0.92Q36.56 0.20 34.60 0.20L34.60 0.20Q32.29 0.20 30.97-1.25Q29.64-2.70 29.64-5.25L29.64-5.25L29.64-5.39Q29.64-6.99 30.23-8.22Q30.82-9.44 31.93-10.10Q33.05-10.76 34.57-10.76L34.57-10.76Q36.63-10.76 37.84-9.62Q39.05-8.48 39.05-6.52L39.05-6.52L35.97-6.52Q35.97-7.34 35.57-7.78Q35.17-8.22 34.49-8.22L34.49-8.22Q33.21-8.22 33.00-6.59L33.00-6.59Q32.93-6.07 32.93-5.17L32.93-5.17Q32.93-3.57 33.31-2.96Q33.69-2.34 34.52-2.34ZM45.56 0.20L45.56 0.20Q43.13 0.20 41.62-1.25Q40.12-2.71 40.12-5.03L40.12-5.03L40.12-5.30Q40.12-6.92 40.72-8.16Q41.32-9.40 42.47-10.08Q43.62-10.76 45.21-10.76L45.21-10.76Q47.43-10.76 48.72-9.38Q50.01-8.00 50.01-5.53L50.01-5.53L50.01-4.25L43.47-4.25Q43.64-3.36 44.24-2.85Q44.83-2.34 45.78-2.34L45.78-2.34Q47.34-2.34 48.22-3.44L48.22-3.44L49.73-1.66Q49.11-0.81 47.98-0.31Q46.86 0.20 45.56 0.20ZM45.19-8.22L45.19-8.22Q43.74-8.22 43.47-6.31L43.47-6.31L46.79-6.31L46.79-6.56Q46.81-7.35 46.39-7.79Q45.97-8.22 45.19-8.22ZM54.55-15L54.55-9.43Q55.61-10.76 57.25-10.76L57.25-10.76Q58.99-10.76 59.88-9.73Q60.77-8.69 60.79-6.67L60.79-6.67L60.79 0L57.49 0L57.49-6.59Q57.49-7.43 57.15-7.83Q56.81-8.22 55.99-8.22L55.99-8.22Q54.97-8.22 54.55-7.58L54.55-7.58L54.55 0L51.26 0L51.26-15L54.55-15ZM62.22-4.82L62.21-5.38Q62.21-6.96 62.82-8.20Q63.44-9.43 64.59-10.10Q65.74-10.76 67.29-10.76L67.29-10.76Q69.67-10.76 71.04-9.29Q72.40-7.82 72.40-5.29L72.40-5.29L72.40-5.18Q72.40-2.71 71.03-1.25Q69.66 0.20 67.31 0.20L67.31 0.20Q65.06 0.20 63.69-1.16Q62.32-2.51 62.22-4.82L62.22-4.82ZM65.51-5.77L65.50-5.18Q65.50-3.71 65.96-3.03Q66.42-2.34 67.31-2.34L67.31-2.34Q69.07-2.34 69.11-5.05L69.11-5.05L69.11-5.38Q69.11-8.22 67.29-8.22L67.29-8.22Q65.64-8.22 65.51-5.77L65.51-5.77ZM77.32-15L77.32 0L74.02 0L74.02-15L77.32-15ZM78.94-5.36L78.94-5.36Q78.94-7.87 80.02-9.32Q81.10-10.76 83.05-10.76L83.05-10.76Q84.46-10.76 85.43-9.65L85.43-9.65L85.43-15L88.73-15L88.73 0L85.77 0L85.61-1.13Q84.59 0.20 83.03 0.20L83.03 0.20Q81.14 0.20 80.04-1.25Q78.94-2.70 78.94-5.36ZM82.24-5.76L82.23-5.16Q82.23-2.34 83.87-2.34L83.87-2.34Q84.96-2.34 85.43-3.26L85.43-3.26L85.43-7.29Q84.98-8.22 83.89-8.22L83.89-8.22Q82.36-8.22 82.24-5.76L82.24-5.76ZM95.71 0.20L95.71 0.20Q93.28 0.20 91.78-1.25Q90.27-2.71 90.27-5.03L90.27-5.03L90.27-5.30Q90.27-6.92 90.87-8.16Q91.47-9.40 92.63-10.08Q93.78-10.76 95.36-10.76L95.36-10.76Q97.59-10.76 98.88-9.38Q100.17-8.00 100.17-5.53L100.17-5.53L100.17-4.25L93.62-4.25Q93.80-3.36 94.39-2.85Q94.99-2.34 95.94-2.34L95.94-2.34Q97.50-2.34 98.38-3.44L98.38-3.44L99.88-1.66Q99.27-0.81 98.14-0.31Q97.01 0.20 95.71 0.20ZM95.34-8.22L95.34-8.22Q93.90-8.22 93.62-6.31L93.62-6.31L96.94-6.31L96.94-6.56Q96.96-7.35 96.54-7.79Q96.12-8.22 95.34-8.22ZM107.94-10.64L107.88-7.59L106.80-7.67Q105.24-7.67 104.80-6.69L104.80-6.69L104.80 0L101.51 0L101.51-10.57L104.60-10.57L104.71-9.21Q105.54-10.76 107.02-10.76L107.02-10.76Q107.55-10.76 107.94-10.64L107.94-10.64Z"></path></g></g></svg>